<?xml version="1.0" encoding="UTF-8"?>
<svg id="Layer_1" data-name="Layer 1" xmlns="http://www.w3.org/2000/svg" viewBox="0 0 1027.43 387.49">
  <defs>
    <style>
      .cls-1 {
        fill: #fff;
      }
    </style>
  </defs>
  <g>
    <path class="cls-1" d="m355.22.34c11.03-2.3,22.34,7.48,21.65,18.72.15,10.64-10.48,19.54-20.92,17.87-8.68-1.08-16.07-9-16-17.85-.51-8.9,6.51-17.36,15.27-18.74Z"/>
    <path class="cls-1" d="m939.22,25.36c8.59-2.48,18.51,2.38,21.77,10.71,3.28,7.34.89,16.7-5.46,21.62-4.96,3.95-12,5.18-17.96,2.91-7.15-2.55-12.31-9.86-12.11-17.49-.1-8.15,5.86-15.81,13.76-17.75Z"/>
    <path class="cls-1" d="m150.19,316.34c6.31-1.11,13.16,1.28,17.23,6.26,4.43,5.09,5.67,12.67,3.07,18.9-1.85,4.77-5.83,8.59-10.61,10.37-6.14,2.47-13.51,1.08-18.52-3.18-5.03-4.24-7.56-11.32-6.12-17.77,1.29-7.36,7.63-13.38,14.95-14.58Z"/>
    <path class="cls-1" d="m574.36,327.73c10.55-3.94,23.27,3.97,24.28,15.2,1.71,10.42-7.24,20.77-17.74,20.81-9.4.55-18.31-7.2-18.99-16.6-1.03-8.37,4.49-16.78,12.45-19.41Z"/>
  </g>
  <g>
    <path class="cls-1" d="m389.37,43.7c6.71-2.64,14.14,4.55,11.82,11.34-1.5,6.5-10.79,9.02-15.3,4.08-5.08-4.34-2.91-13.62,3.48-15.42Z"/>
    <path class="cls-1" d="m141.85,48.49c9.09-2.34,18.72-3.86,28.02-1.87,5.33,1.23,10.88,4.17,13.04,9.48,2.47,6.12,1.16,12.93-.83,18.99-2.16,7.27-6.49,14.05-12.68,18.52-.98.69-3.67,1.55-3.58-.51.53-4.45,3.49-8.08,5.05-12.17,2.3-5.44,3.18-12.3-.55-17.32-4.69-5.52-12.45-7-19.36-7.14-13.17.07-25.94,4.25-37.86,9.58-29.21,13.95-54.03,37.17-69.32,65.76-5.41,10.13-9.4,20.95-12.74,31.92,6.3-.66,12.65-1.04,18.85-2.4,26.58-5.89,53.21-11.63,80.06-16.2,4.76-.71,9.56-1.73,14.4-1.2-2.21,1.5-4.64,2.63-7.17,3.46-27.82,9.79-56.71,15.98-85.42,22.49-7.94,1.88-15.77,4.2-23.75,5.88-2.33,17.35-2.9,35.22.97,52.39,3.42,15.55,12.26,30.19,25.57,39.19,10.51,6.8,22.9,10.69,35.42,11.01,24.61.71,48.72-9.18,67.64-24.55,9.34-7.5,16.88-17.09,22.48-27.64.82-1.74,1.94-3.54,1.62-5.54-2.51-23.73-2.32-47.75.43-71.46,2.21-17.36,6.19-34.65,13.32-50.69,4.72-10.12,11.23-19.82,20.5-26.29,4.12-2.88,8.93-4.84,13.99-5.11-6.23,3.08-10.98,8.3-15.62,13.33-11.98,14.21-17.88,32.5-20.77,50.59-4.29,25.12-4.13,50.76-1.98,76.08,2.87,29.36,7.09,59.02,17.96,86.63,3.09,7.12,7.33,15.37,15.46,17.5,1.14.31,2.08.94,2.81,1.92-4.43,2.12-9.67.57-12.98-2.82-15.11-14.61-22.48-35.07-27.27-55.07-1.79-7.36-3.15-14.81-4.3-22.29-11.07,19.89-30.43,33.74-50.94,42.68-23.81,10.11-51.6,13.8-76.27,4.57-14.73-5.03-27.02-16.03-34.44-29.62-8.56-15.99-10.02-34.66-9.55-52.49,0-7.22.99-14.39,2.05-21.52-3.9-.11-8.05.81-11.77-.64-2.39-1.81-2.51-5.23-2.24-7.96.48-2.93,1.16-6.39,3.92-8.04,4.4,2.64,9.23,4.36,14.42,4.53,4.68-16.53,12.38-32.23,22.87-45.86,12.33-16.54,27.55-30.8,44.31-42.78,17.1-12.02,35.94-21.93,56.23-27.32Z"/>
    <path class="cls-1" d="m720.36,66.37c6.86-5.75,14.62-11.3,23.72-12.52,6.72-.93,14.58,2.06,17.32,8.65,2.09,6.28.8,13.07-.51,19.39-3.69,13.86-11.51,26.1-18.91,38.22-11.53,19.05-21.13,39.23-29.43,59.88-11.35,28.72-20.72,58.93-20.65,90.1-.14,11.97,1.14,24.17,5.81,35.28,2,4.83,5.89,9.28,11.17,10.44,5.88,1,11.37-2.48,15.36-6.45,2.11-1.89,3.26-4.9,6.09-5.88-.44,5.99-4.14,11.57-9.21,14.71-5.8,4.12-13.19,7.27-20.36,5.13-7.78-2.28-12.31-9.82-15.51-16.74-7.78-18.53-5.74-39.24-2.23-58.51,8.69-43.97,25.39-85.76,41.72-127.32,4.35-11.3,8.89-22.53,12.58-34.06,1.8-6.27,4.27-12.94,2.77-19.49-.86-2.82-4.22-2.35-6.24-1.19-6.94,3.73-12.07,9.93-17.36,15.62-11.48,13.17-21.39,27.62-30.51,42.49-10.27,16.85-19.59,34.3-27.48,52.39-7.85,17.47-13.89,35.83-17,54.75-.82,4.82-2.39,9.76-5.96,13.28-1.57,1.67-4.19,2.52-6.17.99-2.38-2.11-3.39-5.37-3.6-8.46-.82-29.4-.78-58.97-5.23-88.11-2.77-17.15-6.01-34.35-11.87-50.75-3.02-7.94-6.8-15.94-12.98-21.92-3.67-3.7-9.54-4.94-14.25-2.51-7.61,3.76-12.26,11.32-16.48,18.35-8.32,15.06-14.23,31.33-19.06,47.8-7.34,26.06-12.67,53.03-11.7,80.22,1.06,9.41,2.01,19.81-2.92,28.35-1.19,2.34-4.44,1.67-5.3-.58-5.95-10.58-6.37-23.06-8.73-34.73-3.73-17.36-7.81-34.72-14.11-51.35-3.57-9.57-7.48-19.93-16.2-26,4.86-3.79,11.58-1.03,15.54,2.78,8.17,8.4,12.36,19.61,16.39,30.39,3.16,8.37,5.12,17.13,8.14,25.55,4.21-23.56,8.26-47.3,16.35-69.92,6.05-16.89,13.06-33.79,23.97-48.18,6.26-7.45,14.19-15.63,24.63-15.64,9.2.07,16.07,7.24,20.93,14.28,9.16,13.46,14.03,29.32,17.53,45.07,6.85,34.33,3.36,69.49,4.73,104.21,5.92-18.51,13.07-36.59,20.7-54.45,9.79-22.7,20.79-44.93,33.92-65.9,8.71-13.64,18.46-26.84,30.59-37.66Z"/>
    <path class="cls-1" d="m907.14,68.35c7.15-2.85,14.82,5.59,11.4,12.42-2.24,5.93-10.85,7.55-15.09,2.86-4.78-4.46-2.61-13.51,3.69-15.28Z"/>
    <path class="cls-1" d="m465.08,92.12c1.45-1.94,3.27-3.98,5.85-4.24,2.96.21,5.51,3.24,5.69,6.07-1.44,5.02-4.45,9.4-6.43,14.21-10.09,21.17-20.19,42.46-27.08,64.93-7.63,23.79-13.21,48.46-14.01,73.5.63-2.21,1.03-4.49,1.98-6.58,10.22-19.94,22.26-39.55,39.52-54.2,5.14-4.43,11.31-8.39,18.32-8.49,3.33-.23,7.42,1.07,8.43,4.63,1.5,5.19-.02,10.7-1.91,15.59-7.38,17.39-19.5,32.15-28.3,48.77-6.46,12.15-12.9,24.81-14.14,38.75-.66,8.21-.86,16.96,2.73,24.59,1.22,2.75,4.21,4.78,7.29,4.08,4.77-1.03,7.97-5.05,12.21-7.13.15,5.09-4.77,7.87-8.63,10.03-5.12,2.89-12.09,3.67-16.88-.28-4.93-4.6-6.19-11.83-6-18.29.58-15.85,6.99-30.62,12.87-45.09,7.36-18.21,16.75-35.48,24.8-53.37,1.78-4.88,4.26-10.03,3.29-15.34-1.68-1.75-4.16-.32-5.82.7-7.04,4.81-13.04,10.99-18.64,17.38-7.02,7.84-13.13,16.47-18.44,25.54-3.73,6.93-7.39,14.04-9.05,21.79-.83,3.54-1.12,7.38-3.34,10.41-1.89-.96-4.4-1.69-5-4.01-1.63-5.17-1.77-10.66-1.64-16.03.61-21.86,5.4-43.32,10.48-64.5,4.93-19.36,11.13-38.39,18.4-56.99,3.77-9.14,7.61-18.38,13.45-26.43Z"/>
    <path class="cls-1" d="m332.28,141.58c3.43-1.63,8.44-.47,9.46,3.56.84,5.72-2.67,11.18-6.74,14.9-2.19,2.05-6.35,3.33-8.49.55-3.5-6.43-.48-15.49,5.77-19.01Z"/>
    <path class="cls-1" d="m946.42,141.79c3.44-1.81,8.99-1.03,9.89,3.38.76,5.87-2.75,11.56-7.14,15.19-2.25,2-6.58,2.93-8.31-.15-3.07-6.32-.26-14.71,5.56-18.42Z"/>
    <path class="cls-1" d="m881.81,156.17c1.07-2.72,2.09-6.15,5.09-7.29,3.13.05,4.01,3.73,5.04,6.08,2.15,5.19.22,10.67-.46,15.93-3.31,21.51-3.1,43.42-.83,65.03,2.88,26.24,3.73,53.02-1.24,79.07-2.79,12.94-6.72,25.79-13.09,37.44-7.65,13.51-18.86,25.77-33.58,31.54-9.52,3.98-20.8,5.09-30.38.7-7.67-3.45-14.44-10.17-15.77-18.75-1.79-10.08,2.6-19.89,7.84-28.24,10.08-16.41,26.12-27.85,41.94-38.26,6.29-4.41,13.26-7.67,20.12-11.08,3.67-1.76,7.18-4.14,11.35-4.58-.43,2.31-1.8,4.26-3.94,5.27-9.21,4.85-18.39,9.91-26.58,16.4-6.57,5.37-12.41,11.58-17.65,18.25-6.1,7.77-12,15.8-16.27,24.76-3.61,7.27-7.54,15.32-5.62,23.66.84,4.43,4.82,7.86,9.3,8.16,8.78.76,17.02-3.46,24.3-7.9,13.11-8.89,24.76-20.36,32.46-34.31,9.24-17.03,12.07-36.79,11.72-55.96-.26-29.08-8.03-57.62-7.05-86.75-1.48,3.45-1.72,7.25-2.67,10.86-4.32,18.15-9.48,36.43-19.13,52.55-2.8,4.46-5.77,9.2-10.57,11.73-5.04,2.52-11.83,2.57-16.01-1.6-6.65-5.96-7.01-15.67-7.18-23.96-4.52,4.01-10.81,6.81-16.86,4.79-5.54-1.75-7.26-7.91-9.23-12.71-2.91-7.08-1.91-14.83-2.32-22.26-7.19,14.41-15.14,28.82-26.56,40.35-4.44,4.22-10.35,9.05-16.89,7.14-5.25-1.4-6.67-7.51-7.32-12.19-.8-10.82,1.94-21.56,5.34-31.75,5.99-17.01,13.24-34.11,25.39-47.7,4.95-5.16,10.81-10.76,18.42-10.89,7.68.11,13.25,7.31,14.78,14.27.54,4.15.63,9.37-2.75,12.39-2.01,1.11-2.88-1.47-3.63-2.77-2.49-5.23-6.19-11.06-12.37-12.09-6.81-.57-11.94,4.98-15.67,9.96-8.14,11.37-12.27,25.03-15.4,38.51-2.07,9.18-4.19,18.61-3.26,28.08.26,2.82,1.71,7,5.34,6.27,5.4-1.09,9.03-5.83,12.35-9.87,11.89-14.89,17.88-33.2,25.92-50.21,1.82-4.33,9.67-5.35,10.91-.09,2.31,7.49.15,15.44-1.25,22.91-1.11,7.14-1.04,14.44-.2,21.6.41,2.56.98,5.55,3.41,6.99,3.05.43,5.19-2.39,6.82-4.56,1.65-2.65,3.58-5.09,5.95-7.14,3.45-17.82,9.27-35.39,18.92-50.87,3.78-5.8,8.02-11.75,14.3-15.02,3.76-1.89,9.02-2.5,12.24.75,3.64,4.11,4.97,10.27,3.03,15.45-.74,2.1-2.93,3.99-5.24,3-3.64-1.17-3.08-6.21-6.21-7.9-4.81-1.12-8.61,2.9-11.2,6.37-3.46,5.18-5.96,10.96-8.11,16.79-5.09,15.22-8.14,31.38-6.87,47.46.6,4.56,1.23,10.12,5.61,12.68,3.85,1.88,8.07-.59,10.57-3.54,4.08-5.04,7.05-10.88,9.44-16.87,7.66-18.97,12.04-39.04,16.18-59.01,1.93-8.99,2.6-18.25,5.28-27.07Z"/>
    <path class="cls-1" d="m368.62,162.75c12.7-7.99,28.35-12.24,43.25-9.03,6.69,1.42,13.2,5.19,16.61,11.28,2.57,4.57.99,10.4-2.39,14.1-1.04,1.57-3.05,1.41-4.67,1.65-.71-5.34,4.17-10.45,1.15-15.55-2.6-4.85-8.83-4.77-13.59-5.11-12.87-.8-24.95,5.49-34.49,13.63-8.91,7.75-16.32,17.8-18.9,29.5-1.86,9.74.01,20.04,4.58,28.8,2.94,5.69,5.63,11.5,8.24,17.35,6.45-2.87,13.02-7.36,20.38-6.47-.96,1.37-2.01,2.79-3.68,3.32-4.87,1.95-9.72,3.98-14.35,6.47,1.25,4.36,2.14,9.19.25,13.52-2.18,5.26-7.88,7.84-13.09,9.11-4.23.84-10.05.19-11.79-4.43-1.71-4.95,1.93-10.06,5.96-12.67,4.36-2.68,8.79-5.29,13.35-7.65-2.1-7.74-7.24-13.98-10.92-20.95-5.16,12.54-11.43,25.14-21.78,34.23-5.45,5.36-12.82,9.53-20.71,8.59-5.44-.16-10.54-3.66-12.43-8.79-5.36-13.2-3.25-27.93-.69-41.53,3.7-15.68,7.03-32.15,16.67-45.44,1.74-2.37,4.17-5.04,7.43-4.59,2.95.19,4.73,3.27,4.97,5.95.36,4.77-1.08,9.5-3.29,13.68-5.79,10.56-11.08,21.41-15.45,32.64-3.17,8.18-3.89,17.06-4.02,25.76.05,4.41.14,8.93,1.43,13.19.93,3.11,3.81,6.16,7.34,5.49,5.37-.83,9.6-4.65,13.32-8.35,10.32-10.67,17.87-23.66,24.23-36.98-4.55-10.05-5.05-21.54-3.09-32.27,2.19-11.86,10.31-21.88,20.17-28.45Zm-12.92,105.98c6.78-.59,12.13-7.53,11.45-14.28-4.96,3.48-11.99,7.2-11.45,14.28Z"/>
    <path class="cls-1" d="m996.94,170.17c4.13-2.75,9.95-4.41,14.48-1.63,5.15,4.3,5.99,12.6,2.41,18.16-1.48,2.57-5.92,2.09-6.78-.74-1.5-2.33-1.49-6.85-5.07-6.79-6.23.09-10.16,5.86-13.47,10.4-8.74,13.58-13.75,29.28-16.81,45.04-1.25,8.06-2.38,16.6.26,24.5,2.55,4.75,9,4.19,13.5,3.25,9.9-2.6,17.51-10.24,23.86-17.9,4.99-6.17,9.47-12.76,13.42-19.64,1.03-1.34,2.03-3.43,3.93-3.51,1.55,2.42.38,5.69-.37,8.27-5.55,14.05-15.2,26.6-27.95,34.84-6.51,4.43-14.32,7.42-22.3,6.81-6.3-.59-12.59-4.35-15.15-10.3-1.47-3.29-1.82-6.92-2.27-10.45-4.23,6.7-9.77,12.56-16.08,17.32-6.18,4.77-15.11,6.38-22.23,2.88-5.11-2.53-6.97-8.43-8.24-13.57-2.63-12.78-.54-25.99,2.18-38.59,3.57-14.57,7.1-29.72,16.02-42.1,1.65-2.08,3.75-4.48,6.67-4.36,3.26-.24,5.5,3.12,5.63,6.06.39,5.94-1.99,11.62-4.94,16.63-5.01,9.27-9.51,18.82-13.42,28.6-4.05,10.01-4.65,21.01-4.29,31.68.35,4.05.52,8.59,3.26,11.85,1.92,2.38,5.33,2.32,7.96,1.28,6.53-2.51,11.21-8.03,15.64-13.2,5.18-6.54,10.24-13.34,13.75-20.94,4.25-15.8,10.36-31.2,19.36-44.92,4.7-7.07,9.9-14.15,17.04-18.93Z"/>
    <path class="cls-1" d="m300.28,181.34c1.92-1.35,4.45-3.68,6.88-2.32,1.23,3.25-1.86,6.16-3.97,8.28-10.09,8.49-17.89,19.41-23.78,31.14-9.85,18.73-14.31,39.76-16.76,60.62-1.3,3.37-4.55,7.01-8.49,6.66-4.18-1.08-4.81-6.04-5.29-9.65-.69-14.99.71-30.01-.36-45-.74-11.76-1.53-23.96-6.76-34.72-2.43-5.37-9.06-8.12-14.59-6.11-6.79,2.3-10.29,9.1-15.51,13.45-2.58,2.03-2.48-1.92-1.17-3.19,5.01-7.51,11.84-14.04,20.04-17.93,5.05-2.5,11.77-2.14,15.6,2.34,4.44,5.41,6.55,12.31,8.08,19.03,3.75,18.3,3.64,37.15,2.04,55.68,5.03-13.92,10.65-27.67,17.3-40.9,7.4-13.39,14.78-27.43,26.74-37.38Z"/>
    <path class="cls-1" d="m1013.18,302.27c7.03-1.67,13.48,6.73,10.04,13.1-2.77,6.14-12.21,7.09-15.92,1.37-3.96-5.19-.63-13.56,5.88-14.47Z"/>
    <path class="cls-1" d="m605.46,308.67c6.17-2.05,13.13,3.93,11.69,10.38-.79,7.05-10.41,10.21-15.41,5.33-5.21-4.52-3.08-14.09,3.72-15.71Z"/>
    <path class="cls-1" d="m103.32,338.56c6.12-3.14,14.15,2.85,12.87,9.63-.46,6.45-8.63,10.28-13.96,6.69-6.31-3.34-5.68-13.85,1.09-16.32Z"/>
  </g>
  <g>
    <path class="cls-1" d="m343.22,56.21c4.4-2.45,10.26,1.96,8.89,6.88-.76,4.47-7.16,6.49-10.23,3.08-3.19-2.57-2.24-8.23,1.34-9.96Z"/>
    <path class="cls-1" d="m616.15,339.17c4.29-.95,8.49,3.57,7.07,7.77-1.07,4.53-7.61,6.11-10.54,2.41-3.34-3.27-1.03-9.45,3.47-10.18Z"/>
  </g>
</svg>